<svg width="32" height="32" viewBox="0 0 32 32" fill="none" xmlns="http://www.w3.org/2000/svg">
<path d="M9.6 6.00004C8.72051 6.00004 8 6.69289 8 7.5385V24.4615C8 25.3072 8.72051 26 9.6 26H22.4C23.2795 26 24 25.3072 24 24.4615V10.2308C24 10.2288 24 10.2268 24 10.2248C24 10.2228 24 10.2208 24 10.2188C23.9998 10.2098 23.9993 10.2007 23.9984 10.1917C23.998 10.1877 23.9974 10.1837 23.9969 10.1797C23.9905 10.1283 23.9733 10.0786 23.9465 10.0337C23.9196 9.98875 23.8836 9.94951 23.8406 9.9183L19.9328 6.1623C19.9308 6.15977 19.9287 6.15727 19.9266 6.15479C19.8887 6.10599 19.8394 6.06653 19.7826 6.03962C19.7259 6.01272 19.6633 5.99916 19.6 6.00004H9.6ZM9.6 6.76927H19.2V9.07696C19.2 9.92265 19.9205 10.6154 20.8 10.6154H23.2V24.4615C23.2 24.8944 22.8501 25.2308 22.4 25.2308H9.6C9.14987 25.2308 8.8 24.8944 8.8 24.4615V7.5385C8.8 7.10573 9.14987 6.76927 9.6 6.76927ZM20 7.31314L22.6344 9.84619H20.8C20.3499 9.84619 20 9.5098 20 9.07696V7.31314ZM11.5656 14.4616C11.4595 14.4667 11.3599 14.5122 11.2887 14.588C11.2175 14.6638 11.1805 14.7637 11.1859 14.8657C11.1913 14.9677 11.2386 15.0635 11.3175 15.132C11.3963 15.2004 11.5002 15.236 11.6062 15.2308H16.9062H20.4C20.453 15.2315 20.5056 15.2221 20.5548 15.2031C20.604 15.1841 20.6488 15.1559 20.6865 15.1201C20.7243 15.0843 20.7542 15.0417 20.7747 14.9946C20.7952 14.9476 20.8057 14.8971 20.8057 14.8462C20.8057 14.7952 20.7952 14.7447 20.7747 14.6977C20.7542 14.6507 20.7243 14.6081 20.6865 14.5723C20.6488 14.5365 20.604 14.5083 20.5548 14.4893C20.5056 14.4703 20.453 14.4608 20.4 14.4616H16.9062H11.6062C11.5927 14.4609 11.5792 14.4609 11.5656 14.4616ZM11.5656 16C11.4595 16.0052 11.3599 16.0507 11.2887 16.1265C11.2175 16.2023 11.1805 16.3022 11.1859 16.4042C11.1913 16.5062 11.2386 16.6019 11.3175 16.6704C11.3963 16.7389 11.5002 16.7744 11.6062 16.7692H16.9062H20.4C20.453 16.77 20.5056 16.7606 20.5548 16.7415C20.604 16.7225 20.6488 16.6943 20.6865 16.6585C20.7243 16.6228 20.7542 16.5801 20.7747 16.5331C20.7952 16.4861 20.8057 16.4356 20.8057 16.3846C20.8057 16.3337 20.7952 16.2832 20.7747 16.2362C20.7542 16.1892 20.7243 16.1465 20.6865 16.1107C20.6488 16.0749 20.604 16.0467 20.5548 16.0277C20.5056 16.0087 20.453 15.9993 20.4 16H16.9062H11.6062C11.5927 15.9994 11.5792 15.9994 11.5656 16ZM11.5656 17.5385C11.4595 17.5437 11.3599 17.5891 11.2887 17.6649C11.2175 17.7407 11.1805 17.8406 11.1859 17.9426C11.1913 18.0446 11.2386 18.1404 11.3175 18.2089C11.3963 18.2773 11.5002 18.3129 11.6062 18.3077H16.9062H20.4C20.453 18.3084 20.5056 18.299 20.5548 18.28C20.604 18.261 20.6488 18.2328 20.6865 18.197C20.7243 18.1612 20.7542 18.1186 20.7747 18.0715C20.7952 18.0245 20.8057 17.9741 20.8057 17.9231C20.8057 17.8721 20.7952 17.8217 20.7747 17.7746C20.7542 17.7276 20.7243 17.685 20.6865 17.6492C20.6488 17.6134 20.604 17.5852 20.5548 17.5662C20.5056 17.5472 20.453 17.5378 20.4 17.5385H16.9062H11.6062C11.5927 17.5378 11.5792 17.5378 11.5656 17.5385ZM11.5656 19.0769C11.4595 19.0821 11.3599 19.1276 11.2887 19.2034C11.2175 19.2792 11.1805 19.3791 11.1859 19.4811C11.1913 19.5831 11.2386 19.6789 11.3175 19.7473C11.3963 19.8158 11.5002 19.8513 11.6062 19.8462H15.1H17.2C17.253 19.8469 17.3056 19.8375 17.3548 19.8185C17.404 19.7995 17.4488 19.7712 17.4865 19.7355C17.5243 19.6997 17.5542 19.657 17.5747 19.61C17.5952 19.563 17.6057 19.5125 17.6057 19.4616C17.6057 19.4106 17.5952 19.3601 17.5747 19.3131C17.5542 19.2661 17.5243 19.2234 17.4865 19.1876C17.4488 19.1519 17.404 19.1236 17.3548 19.1046C17.3056 19.0856 17.253 19.0762 17.2 19.0769H15.1H11.6062C11.5927 19.0763 11.5792 19.0763 11.5656 19.0769ZM18.7594 19.0769C18.6533 19.0821 18.5537 19.1276 18.4825 19.2034C18.4113 19.2792 18.3743 19.3791 18.3797 19.4811C18.3851 19.5831 18.4324 19.6789 18.5112 19.7473C18.59 19.8158 18.6939 19.8513 18.8 19.8462C18.853 19.8469 18.9056 19.8375 18.9548 19.8185C19.004 19.7995 19.0488 19.7712 19.0865 19.7355C19.1243 19.6997 19.1542 19.657 19.1747 19.61C19.1952 19.563 19.2057 19.5125 19.2057 19.4616C19.2057 19.4106 19.1952 19.3601 19.1747 19.3131C19.1542 19.2661 19.1243 19.2234 19.0865 19.1876C19.0488 19.1519 19.004 19.1236 18.9548 19.1046C18.9056 19.0856 18.853 19.0762 18.8 19.0769C18.7865 19.0763 18.7729 19.0763 18.7594 19.0769Z" fill="#F6F6F6"/>
</svg>
