<svg width="32" height="32" viewBox="0 0 32 32" fill="none" xmlns="http://www.w3.org/2000/svg">
<path d="M7.51855 24.9667C7.77005 24.9896 8.01112 25 8.24202 25C11.4468 25 12.6955 22.9228 12.9556 21.5865C13.6057 21.1534 14.254 20.6552 14.8937 20.1107C14.9534 20.0774 15.0064 20.0343 15.0505 19.979C20.1694 15.5541 24.6975 8.25249 24.9137 7.90127C25.0523 7.67614 25.0213 7.37936 24.8399 7.19119L24.8112 7.16157C24.6325 6.97651 24.3553 6.94688 24.145 7.09104C23.8122 7.31899 16.8991 12.0852 12.7014 17.4764C12.6372 17.53 12.5863 17.598 12.5515 17.6741C12.059 18.3188 11.6076 18.9713 11.2114 19.6255C10.5085 19.5832 9.8083 19.8207 9.21004 20.3133C8.45955 20.9308 7.95574 21.8897 7.8942 22.8148C7.83935 23.6397 7.52551 23.8196 7.45782 23.8496C7.18598 23.8752 7.00297 24.1114 7.00003 24.4016C6.99708 24.6976 7.23949 24.9416 7.51855 24.9667ZM22.346 9.79874C20.5908 12.3183 17.6563 16.208 14.5379 18.958C14.2778 18.8142 13.8856 18.5289 13.6533 18.0395C16.2626 14.7487 19.9546 11.6508 22.346 9.79874ZM12.9473 18.9786C13.1626 19.2878 13.4112 19.5259 13.6472 19.7028C13.233 20.0334 12.8172 20.3457 12.4023 20.6231C12.3415 20.6219 12.2909 20.6174 12.2511 20.612C12.2291 20.5728 12.2024 20.5364 12.1711 20.5034C12.1433 20.467 12.1141 20.3624 12.098 20.2532C12.3544 19.8281 12.6428 19.4026 12.9473 18.9786ZM8.96148 22.894C9.00161 22.2875 9.35746 21.6234 9.8685 21.2031C10.1457 20.9748 10.5735 20.728 11.1113 20.7492C11.1405 20.8451 11.1782 20.9432 11.2274 21.0369C11.2378 21.1672 11.2911 21.2925 11.3821 21.3884C11.4968 21.5097 11.6427 21.6006 11.8182 21.6612C11.5782 22.3637 10.856 23.6631 8.76831 23.8498C8.86596 23.588 8.9366 23.2726 8.96148 22.894Z" fill="#F6F6F6"/>
</svg>
