<svg width="64" height="64" viewBox="0 0 64 64" fill="none" xmlns="http://www.w3.org/2000/svg">
<g clip-path="url(#clip0_123_496)">
<rect width="64" height="64" rx="8" fill="#9E1B32"/>
<path d="M14.4492 21.3445C14.5063 20.791 14.2876 20.2376 13.8691 19.8624L9.58011 14.7598V14H22.9132L33.222 36.296L42.2851 14H55V14.7598L51.3291 18.2303C51.0153 18.4648 50.8536 18.8588 50.9202 19.2434V44.7566C50.8536 45.1412 51.0153 45.5352 51.3291 45.7697L54.9144 49.2402V50H36.8739V49.2402L40.5923 45.6853C40.9537 45.3288 40.9537 45.2163 40.9537 44.6722V24.0552L30.6163 49.9343H29.2183L17.1976 24.0552V41.3986C17.093 42.1303 17.3403 42.8619 17.8633 43.3872L22.6944 49.1652V49.925H9V49.1746L13.8311 43.3872C14.3446 42.8619 14.5824 42.1209 14.4492 41.3986V21.3445Z" fill="#D9D9D9"/>
</g>
<defs>
<clipPath id="clip0_123_496">
<rect width="64" height="64" fill="white"/>
</clipPath>
</defs>
</svg>
